G04 EAGLE Gerber RS-274X export*
G75*
%MOMM*%
%FSLAX34Y34*%
%LPD*%
%INBottom Copper*%
%IPPOS*%
%AMOC8*
5,1,8,0,0,1.08239X$1,22.5*%
G01*
%ADD10P,1.429621X8X22.500000*%
%ADD11C,1.676400*%
%ADD12C,1.320800*%
%ADD13R,1.508000X1.508000*%
%ADD14C,1.508000*%
%ADD15P,1.732040X8X22.500000*%
%ADD16C,1.524000*%
%ADD17C,0.152400*%
%ADD18C,0.756400*%


D10*
X114300Y673100D03*
X165100Y673100D03*
X114300Y622300D03*
X165100Y622300D03*
X114300Y571500D03*
X165100Y571500D03*
X114300Y520700D03*
X165100Y520700D03*
X342900Y673100D03*
X393700Y673100D03*
X342900Y622300D03*
X393700Y622300D03*
X342900Y571500D03*
X393700Y571500D03*
X342900Y520700D03*
X393700Y520700D03*
D11*
X203200Y736600D03*
X101600Y736600D03*
X342900Y736600D03*
X241300Y736600D03*
X482600Y736600D03*
X381000Y736600D03*
X622300Y736600D03*
X520700Y736600D03*
D12*
X558800Y679704D02*
X558800Y666496D01*
X584200Y666496D02*
X584200Y679704D01*
D10*
X215900Y673100D03*
X292100Y673100D03*
X215900Y622300D03*
X292100Y622300D03*
X215900Y571500D03*
X292100Y571500D03*
X215900Y520700D03*
X292100Y520700D03*
X431800Y673100D03*
X508000Y673100D03*
D13*
X736600Y609600D03*
D14*
X736600Y584200D03*
X736600Y558800D03*
D13*
X25400Y558800D03*
D14*
X25400Y584200D03*
X25400Y609600D03*
D15*
X25400Y457200D03*
X50800Y457200D03*
X88900Y457200D03*
X114300Y457200D03*
X152400Y457200D03*
X177800Y457200D03*
D10*
X203200Y457200D03*
X254000Y457200D03*
X279400Y457200D03*
X330200Y457200D03*
X25400Y342900D03*
X101600Y342900D03*
X25400Y317500D03*
X101600Y317500D03*
X25400Y292100D03*
X101600Y292100D03*
X25400Y266700D03*
X101600Y266700D03*
X25400Y241300D03*
X101600Y241300D03*
X25400Y215900D03*
X101600Y215900D03*
X25400Y190500D03*
X101600Y190500D03*
X25400Y165100D03*
X101600Y165100D03*
D12*
X25400Y387096D02*
X25400Y400304D01*
X76200Y400304D02*
X76200Y387096D01*
X50800Y387096D02*
X50800Y400304D01*
X101600Y400304D02*
X101600Y387096D01*
X152400Y387096D02*
X152400Y400304D01*
X127000Y400304D02*
X127000Y387096D01*
X266700Y412496D02*
X266700Y425704D01*
X241300Y425704D02*
X241300Y412496D01*
X241300Y349504D02*
X241300Y336296D01*
X266700Y336296D02*
X266700Y349504D01*
X215900Y412496D02*
X215900Y425704D01*
X190500Y425704D02*
X190500Y412496D01*
X215900Y349504D02*
X215900Y336296D01*
X190500Y336296D02*
X190500Y349504D01*
X247396Y228600D02*
X260604Y228600D01*
X159004Y228600D02*
X145796Y228600D01*
X247396Y203200D02*
X260604Y203200D01*
X159004Y203200D02*
X145796Y203200D01*
X247396Y165100D02*
X260604Y165100D01*
X159004Y165100D02*
X145796Y165100D01*
X247396Y101600D02*
X260604Y101600D01*
X159004Y101600D02*
X145796Y101600D01*
X247396Y139700D02*
X260604Y139700D01*
X159004Y139700D02*
X145796Y139700D01*
X247396Y25400D02*
X260604Y25400D01*
X159004Y25400D02*
X145796Y25400D01*
X247396Y266700D02*
X260604Y266700D01*
X159004Y266700D02*
X145796Y266700D01*
X247396Y304800D02*
X260604Y304800D01*
X159004Y304800D02*
X145796Y304800D01*
X247396Y63500D02*
X260604Y63500D01*
X159004Y63500D02*
X145796Y63500D01*
X602996Y152400D02*
X616204Y152400D01*
X540004Y152400D02*
X526796Y152400D01*
X526796Y76200D02*
X540004Y76200D01*
X602996Y76200D02*
X616204Y76200D01*
X540004Y38100D02*
X526796Y38100D01*
X602996Y38100D02*
X616204Y38100D01*
X616204Y114300D02*
X602996Y114300D01*
X540004Y114300D02*
X526796Y114300D01*
X526796Y254000D02*
X540004Y254000D01*
X602996Y254000D02*
X616204Y254000D01*
X540004Y279400D02*
X526796Y279400D01*
X602996Y279400D02*
X616204Y279400D01*
X540004Y228600D02*
X526796Y228600D01*
X602996Y228600D02*
X616204Y228600D01*
X616204Y190500D02*
X602996Y190500D01*
X540004Y190500D02*
X526796Y190500D01*
X526796Y304800D02*
X540004Y304800D01*
X602996Y304800D02*
X616204Y304800D01*
D15*
X711200Y457200D03*
X736600Y457200D03*
X584200Y457200D03*
X609600Y457200D03*
X647700Y457200D03*
X673100Y457200D03*
D10*
X495300Y457200D03*
X546100Y457200D03*
X419100Y457200D03*
X469900Y457200D03*
X660400Y342900D03*
X736600Y342900D03*
X660400Y317500D03*
X736600Y317500D03*
X660400Y292100D03*
X736600Y292100D03*
X660400Y266700D03*
X736600Y266700D03*
X660400Y241300D03*
X736600Y241300D03*
X660400Y215900D03*
X736600Y215900D03*
X660400Y190500D03*
X736600Y190500D03*
X660400Y165100D03*
X736600Y165100D03*
D16*
X355600Y246380D02*
X355600Y261620D01*
X381000Y261620D02*
X381000Y246380D01*
X406400Y246380D02*
X406400Y261620D01*
X355600Y198120D02*
X355600Y182880D01*
X381000Y182880D02*
X381000Y198120D01*
X406400Y198120D02*
X406400Y182880D01*
D12*
X609600Y387096D02*
X609600Y400304D01*
X660400Y400304D02*
X660400Y387096D01*
X635000Y387096D02*
X635000Y400304D01*
X685800Y400304D02*
X685800Y387096D01*
X736600Y387096D02*
X736600Y400304D01*
X711200Y400304D02*
X711200Y387096D01*
X495300Y349504D02*
X495300Y336296D01*
X520700Y336296D02*
X520700Y349504D01*
X520700Y412496D02*
X520700Y425704D01*
X495300Y425704D02*
X495300Y412496D01*
X546100Y349504D02*
X546100Y336296D01*
X571500Y336296D02*
X571500Y349504D01*
X546100Y412496D02*
X546100Y425704D01*
X571500Y425704D02*
X571500Y412496D01*
D16*
X355600Y388620D02*
X355600Y373380D01*
X381000Y373380D02*
X381000Y388620D01*
X406400Y388620D02*
X406400Y373380D01*
X355600Y325120D02*
X355600Y309880D01*
X381000Y309880D02*
X381000Y325120D01*
X406400Y325120D02*
X406400Y309880D01*
D17*
X165100Y520700D02*
X155448Y530352D01*
X25649Y571759D02*
X25400Y584200D01*
X289560Y682752D02*
X342900Y736092D01*
X289560Y682752D02*
X239268Y682752D01*
X179832Y623316D01*
X166116Y623316D01*
X342900Y736092D02*
X342900Y736600D01*
X166116Y623316D02*
X165100Y622300D01*
X27432Y569976D02*
X25649Y571759D01*
X27432Y569976D02*
X102108Y569976D01*
X141732Y530352D01*
X155448Y530352D01*
X112776Y748284D02*
X585216Y748284D01*
X112776Y748284D02*
X102108Y737616D01*
X101600Y736600D01*
X608076Y725424D02*
X652272Y725424D01*
X652780Y725424D01*
X608076Y725424D02*
X585216Y748284D01*
X690372Y687324D02*
X742188Y687324D01*
X690372Y687324D02*
X652272Y725424D01*
D18*
X742188Y687324D03*
D17*
X341376Y672084D02*
X301752Y632460D01*
X292608Y623316D01*
X341376Y672084D02*
X342900Y672084D01*
X292608Y623316D02*
X292100Y622300D01*
X342900Y672084D02*
X342900Y673100D01*
X396240Y632460D02*
X441960Y586740D01*
X396240Y632460D02*
X301752Y632460D01*
X441960Y586740D02*
X464820Y609600D01*
X736600Y609600D01*
X266700Y521208D02*
X216408Y571500D01*
X266700Y521208D02*
X291084Y521208D01*
X292100Y520700D01*
X352044Y580644D02*
X393700Y622300D01*
X352044Y580644D02*
X225552Y580644D01*
X216408Y571500D01*
X215900Y571500D01*
X24384Y568452D02*
X24384Y559308D01*
X24384Y568452D02*
X15240Y577596D01*
X15240Y594360D01*
X211836Y594360D01*
X225552Y580644D01*
X25400Y558800D02*
X24384Y559308D01*
X483108Y737616D02*
X519684Y737616D01*
X483108Y737616D02*
X482600Y736600D01*
X519684Y737616D02*
X520700Y736600D01*
X508000Y673100D02*
X524256Y656844D01*
X568452Y656844D01*
X583692Y672084D01*
X584200Y673100D01*
X214884Y621792D02*
X205740Y612648D01*
X123444Y612648D01*
X114300Y621792D01*
X214884Y621792D02*
X215900Y622300D01*
X114300Y622300D02*
X114300Y621792D01*
X394716Y673608D02*
X431292Y673608D01*
X394716Y673608D02*
X393700Y673100D01*
X431292Y673608D02*
X431800Y673100D01*
X342900Y571500D02*
X292100Y571500D01*
X333756Y612648D02*
X205740Y612648D01*
X333756Y612648D02*
X342900Y621792D01*
X342900Y622300D01*
X393192Y457200D02*
X419100Y457200D01*
X393192Y457200D02*
X330200Y457200D01*
X393192Y457200D02*
X393192Y519684D01*
X393700Y520700D01*
X177800Y457200D02*
X167640Y457200D01*
X156972Y467868D01*
X100584Y467868D01*
X89916Y457200D01*
X88900Y457200D01*
X24384Y374904D02*
X24384Y342900D01*
X24384Y374904D02*
X15240Y384048D01*
X15240Y422148D01*
X50292Y457200D01*
X25400Y342900D02*
X24384Y342900D01*
X50292Y457200D02*
X50800Y457200D01*
X204216Y737616D02*
X240792Y737616D01*
X204216Y737616D02*
X203200Y736600D01*
X240792Y737616D02*
X241300Y736600D01*
X548640Y682752D02*
X557784Y673608D01*
X381000Y682752D02*
X301752Y682752D01*
X381000Y682752D02*
X548640Y682752D01*
X301752Y682752D02*
X292100Y673100D01*
X557784Y673608D02*
X558800Y673100D01*
X561268Y573460D02*
X559308Y571500D01*
X381000Y682752D02*
X381000Y736600D01*
D18*
X559308Y571500D03*
D17*
X254000Y228600D02*
X243801Y228600D01*
X152400Y139700D01*
X102108Y118872D02*
X102108Y164592D01*
X102108Y118872D02*
X109728Y111252D01*
X123444Y111252D01*
X151418Y139226D01*
X102108Y164592D02*
X101600Y165100D01*
X151418Y139226D02*
X152400Y139700D01*
X350520Y38100D02*
X609600Y38100D01*
X350520Y38100D02*
X245364Y143256D01*
X225552Y143256D01*
X254000Y228600D02*
X241300Y342900D01*
X495300Y443484D02*
X495300Y457200D01*
X495300Y443484D02*
X519684Y419100D01*
X520700Y419100D01*
X495300Y443484D02*
X443484Y443484D01*
X381000Y381000D01*
X225552Y327660D02*
X225552Y143256D01*
X225552Y327660D02*
X240792Y342900D01*
X241300Y342900D01*
X647192Y266700D02*
X660400Y266700D01*
X634492Y254000D02*
X381000Y254000D01*
X634492Y254000D02*
X647192Y266700D01*
X661416Y266700D02*
X661416Y280416D01*
X720852Y339852D01*
X720852Y448056D01*
X711708Y457200D01*
X661416Y266700D02*
X660400Y266700D01*
X711200Y457200D02*
X711708Y457200D01*
X342900Y519684D02*
X280416Y457200D01*
X279400Y457200D01*
X342900Y519684D02*
X342900Y520700D01*
X215900Y520700D02*
X205740Y510540D01*
X352044Y530352D02*
X393192Y571500D01*
X352044Y530352D02*
X315468Y530352D01*
X295656Y510540D01*
X254508Y510540D02*
X205740Y510540D01*
X254508Y510540D02*
X295656Y510540D01*
X393192Y571500D02*
X393700Y571500D01*
X394716Y571500D02*
X400812Y577596D01*
X394716Y571500D02*
X393700Y571500D01*
D18*
X621792Y577596D03*
D17*
X470916Y577596D02*
X400812Y577596D01*
X470916Y577596D02*
X621792Y577596D01*
X205740Y510540D02*
X36576Y510540D01*
D18*
X36576Y510540D03*
D17*
X381000Y304800D02*
X609600Y76200D01*
X533400Y279400D02*
X507661Y298704D01*
X381000Y304800D02*
X381000Y317500D01*
X507661Y298704D02*
X527304Y298704D01*
X571500Y342900D01*
X160713Y51123D02*
X89916Y121920D01*
X89916Y126492D01*
X160713Y51123D02*
X254000Y101600D01*
X152400Y203200D02*
X89916Y126492D01*
X190500Y419100D02*
X196596Y419100D01*
X234696Y457200D01*
X254000Y457200D01*
X137160Y457200D02*
X114300Y457200D01*
X137160Y457200D02*
X175260Y419100D01*
X190500Y419100D01*
X470916Y457200D02*
X470916Y577596D01*
X470916Y457200D02*
X469900Y457200D01*
X672084Y457200D02*
X672084Y527304D01*
X621792Y577596D01*
X672084Y457200D02*
X673100Y457200D01*
X254508Y457200D02*
X254508Y510540D01*
X254508Y457200D02*
X254000Y457200D01*
X214884Y419100D02*
X184404Y388620D01*
X214884Y419100D02*
X215900Y419100D01*
D18*
X184404Y388620D03*
D17*
X57912Y394716D02*
X51816Y394716D01*
X57912Y394716D02*
X73152Y409956D01*
X79248Y409956D01*
X91440Y397764D01*
X91440Y352044D01*
X100584Y342900D01*
X50800Y393700D02*
X51816Y394716D01*
X125984Y114300D02*
X254000Y25400D01*
X125984Y114300D02*
X85344Y154940D01*
X85344Y327660D01*
X100584Y342900D01*
X101600Y342900D01*
X25908Y178308D02*
X25908Y166116D01*
X25908Y178308D02*
X76200Y228600D01*
X76200Y393700D01*
X25908Y166116D02*
X25400Y165100D01*
X102108Y292608D02*
X102108Y295656D01*
X126492Y320040D01*
X126492Y393192D01*
X102108Y292608D02*
X101600Y292100D01*
X126492Y393192D02*
X127000Y393700D01*
X114300Y278892D02*
X152400Y165100D01*
X114300Y278892D02*
X102108Y291084D01*
X101600Y292100D01*
X152400Y266700D02*
X231648Y339852D01*
X231648Y353568D01*
X259080Y381000D01*
X355600Y381000D01*
X32004Y394716D02*
X25908Y394716D01*
X32004Y394716D02*
X50292Y413004D01*
X152400Y413004D01*
X178308Y387096D01*
X178308Y385572D01*
X204216Y359664D01*
X225552Y359664D01*
X231648Y353568D01*
X25908Y394716D02*
X25400Y393700D01*
X102108Y304800D02*
X99060Y301752D01*
X97536Y301752D01*
X91440Y295656D01*
X91440Y275844D01*
X100584Y266700D01*
X101600Y266700D01*
D18*
X102108Y304800D03*
D17*
X100584Y312420D02*
X100584Y316992D01*
X100584Y312420D02*
X88392Y300228D01*
X88392Y254508D01*
X101600Y241300D01*
X100584Y316992D02*
X101600Y317500D01*
X534924Y192024D02*
X534924Y92964D01*
X534924Y192024D02*
X660400Y317500D01*
X582930Y140970D02*
X609600Y114300D01*
X582930Y140970D02*
X534924Y92964D01*
X609600Y309372D02*
X609600Y393700D01*
X609600Y309372D02*
X554228Y254000D01*
X355600Y254000D01*
X661416Y254508D02*
X661416Y242316D01*
X661416Y254508D02*
X726948Y320040D01*
X726948Y333756D01*
X736092Y342900D01*
X661416Y242316D02*
X660400Y241300D01*
X736092Y342900D02*
X736600Y342900D01*
X318516Y257556D02*
X318516Y254000D01*
X318516Y257556D02*
X370332Y309372D01*
X370332Y329184D01*
X403860Y362712D01*
X559308Y362712D01*
X606552Y409956D01*
X694944Y409956D01*
X711200Y393700D01*
X609600Y254000D02*
X318516Y254000D01*
X661416Y292608D02*
X661416Y304800D01*
X710184Y353568D01*
X710184Y393192D01*
X661416Y292608D02*
X660400Y292100D01*
X710184Y393192D02*
X711200Y393700D01*
X737616Y228600D02*
X737616Y216408D01*
X737616Y228600D02*
X746760Y237744D01*
X746760Y384048D01*
X737616Y393192D01*
X737616Y216408D02*
X736600Y215900D01*
X737616Y393192D02*
X736600Y393700D01*
X563033Y275167D02*
X563033Y258233D01*
X563033Y275167D02*
X533400Y304800D01*
X448733Y143933D02*
X355600Y190500D01*
X685800Y381000D02*
X685800Y393700D01*
X563033Y258233D02*
X448733Y143933D01*
X563033Y258233D02*
X685800Y381000D01*
X660400Y165100D02*
X647192Y151892D01*
X406400Y151892D02*
X406400Y190500D01*
X406400Y151892D02*
X647192Y151892D01*
X673608Y190500D02*
X736600Y190500D01*
X673608Y190500D02*
X658368Y175260D01*
X485140Y175260D01*
X406400Y254000D01*
M02*
