G04 EAGLE Gerber RS-274X export*
G75*
%MOMM*%
%FSLAX34Y34*%
%LPD*%
%INTop Copper*%
%IPPOS*%
%AMOC8*
5,1,8,0,0,1.08239X$1,22.5*%
G01*
%ADD10P,1.429621X8X22.500000*%
%ADD11C,1.676400*%
%ADD12C,1.320800*%
%ADD13R,1.508000X1.508000*%
%ADD14C,1.508000*%
%ADD15P,1.732040X8X22.500000*%
%ADD16C,1.524000*%
%ADD17C,0.152400*%
%ADD18C,0.756400*%


D10*
X114300Y673100D03*
X165100Y673100D03*
X114300Y622300D03*
X165100Y622300D03*
X114300Y571500D03*
X165100Y571500D03*
X114300Y520700D03*
X165100Y520700D03*
X342900Y673100D03*
X393700Y673100D03*
X342900Y622300D03*
X393700Y622300D03*
X342900Y571500D03*
X393700Y571500D03*
X342900Y520700D03*
X393700Y520700D03*
D11*
X203200Y736600D03*
X101600Y736600D03*
X342900Y736600D03*
X241300Y736600D03*
X482600Y736600D03*
X381000Y736600D03*
X622300Y736600D03*
X520700Y736600D03*
D12*
X558800Y679704D02*
X558800Y666496D01*
X584200Y666496D02*
X584200Y679704D01*
D10*
X215900Y673100D03*
X292100Y673100D03*
X215900Y622300D03*
X292100Y622300D03*
X215900Y571500D03*
X292100Y571500D03*
X215900Y520700D03*
X292100Y520700D03*
X431800Y673100D03*
X508000Y673100D03*
D13*
X736600Y609600D03*
D14*
X736600Y584200D03*
X736600Y558800D03*
D13*
X25400Y558800D03*
D14*
X25400Y584200D03*
X25400Y609600D03*
D15*
X25400Y457200D03*
X50800Y457200D03*
X88900Y457200D03*
X114300Y457200D03*
X152400Y457200D03*
X177800Y457200D03*
D10*
X203200Y457200D03*
X254000Y457200D03*
X279400Y457200D03*
X330200Y457200D03*
X25400Y342900D03*
X101600Y342900D03*
X25400Y317500D03*
X101600Y317500D03*
X25400Y292100D03*
X101600Y292100D03*
X25400Y266700D03*
X101600Y266700D03*
X25400Y241300D03*
X101600Y241300D03*
X25400Y215900D03*
X101600Y215900D03*
X25400Y190500D03*
X101600Y190500D03*
X25400Y165100D03*
X101600Y165100D03*
D12*
X25400Y387096D02*
X25400Y400304D01*
X76200Y400304D02*
X76200Y387096D01*
X50800Y387096D02*
X50800Y400304D01*
X101600Y400304D02*
X101600Y387096D01*
X152400Y387096D02*
X152400Y400304D01*
X127000Y400304D02*
X127000Y387096D01*
X266700Y412496D02*
X266700Y425704D01*
X241300Y425704D02*
X241300Y412496D01*
X241300Y349504D02*
X241300Y336296D01*
X266700Y336296D02*
X266700Y349504D01*
X215900Y412496D02*
X215900Y425704D01*
X190500Y425704D02*
X190500Y412496D01*
X215900Y349504D02*
X215900Y336296D01*
X190500Y336296D02*
X190500Y349504D01*
X247396Y228600D02*
X260604Y228600D01*
X159004Y228600D02*
X145796Y228600D01*
X247396Y203200D02*
X260604Y203200D01*
X159004Y203200D02*
X145796Y203200D01*
X247396Y165100D02*
X260604Y165100D01*
X159004Y165100D02*
X145796Y165100D01*
X247396Y101600D02*
X260604Y101600D01*
X159004Y101600D02*
X145796Y101600D01*
X247396Y139700D02*
X260604Y139700D01*
X159004Y139700D02*
X145796Y139700D01*
X247396Y25400D02*
X260604Y25400D01*
X159004Y25400D02*
X145796Y25400D01*
X247396Y266700D02*
X260604Y266700D01*
X159004Y266700D02*
X145796Y266700D01*
X247396Y304800D02*
X260604Y304800D01*
X159004Y304800D02*
X145796Y304800D01*
X247396Y63500D02*
X260604Y63500D01*
X159004Y63500D02*
X145796Y63500D01*
X602996Y152400D02*
X616204Y152400D01*
X540004Y152400D02*
X526796Y152400D01*
X526796Y76200D02*
X540004Y76200D01*
X602996Y76200D02*
X616204Y76200D01*
X540004Y38100D02*
X526796Y38100D01*
X602996Y38100D02*
X616204Y38100D01*
X616204Y114300D02*
X602996Y114300D01*
X540004Y114300D02*
X526796Y114300D01*
X526796Y254000D02*
X540004Y254000D01*
X602996Y254000D02*
X616204Y254000D01*
X540004Y279400D02*
X526796Y279400D01*
X602996Y279400D02*
X616204Y279400D01*
X540004Y228600D02*
X526796Y228600D01*
X602996Y228600D02*
X616204Y228600D01*
X616204Y190500D02*
X602996Y190500D01*
X540004Y190500D02*
X526796Y190500D01*
X526796Y304800D02*
X540004Y304800D01*
X602996Y304800D02*
X616204Y304800D01*
D15*
X711200Y457200D03*
X736600Y457200D03*
X584200Y457200D03*
X609600Y457200D03*
X647700Y457200D03*
X673100Y457200D03*
D10*
X495300Y457200D03*
X546100Y457200D03*
X419100Y457200D03*
X469900Y457200D03*
X660400Y342900D03*
X736600Y342900D03*
X660400Y317500D03*
X736600Y317500D03*
X660400Y292100D03*
X736600Y292100D03*
X660400Y266700D03*
X736600Y266700D03*
X660400Y241300D03*
X736600Y241300D03*
X660400Y215900D03*
X736600Y215900D03*
X660400Y190500D03*
X736600Y190500D03*
X660400Y165100D03*
X736600Y165100D03*
D16*
X355600Y246380D02*
X355600Y261620D01*
X381000Y261620D02*
X381000Y246380D01*
X406400Y246380D02*
X406400Y261620D01*
X355600Y198120D02*
X355600Y182880D01*
X381000Y182880D02*
X381000Y198120D01*
X406400Y198120D02*
X406400Y182880D01*
D12*
X609600Y387096D02*
X609600Y400304D01*
X660400Y400304D02*
X660400Y387096D01*
X635000Y387096D02*
X635000Y400304D01*
X685800Y400304D02*
X685800Y387096D01*
X736600Y387096D02*
X736600Y400304D01*
X711200Y400304D02*
X711200Y387096D01*
X495300Y349504D02*
X495300Y336296D01*
X520700Y336296D02*
X520700Y349504D01*
X520700Y412496D02*
X520700Y425704D01*
X495300Y425704D02*
X495300Y412496D01*
X546100Y349504D02*
X546100Y336296D01*
X571500Y336296D02*
X571500Y349504D01*
X546100Y412496D02*
X546100Y425704D01*
X571500Y425704D02*
X571500Y412496D01*
D16*
X355600Y388620D02*
X355600Y373380D01*
X381000Y373380D02*
X381000Y388620D01*
X406400Y388620D02*
X406400Y373380D01*
X355600Y325120D02*
X355600Y309880D01*
X381000Y309880D02*
X381000Y325120D01*
X406400Y325120D02*
X406400Y309880D01*
D17*
X175260Y530352D02*
X166116Y521208D01*
X175260Y530352D02*
X175260Y612648D01*
X166116Y621792D01*
X166116Y521208D02*
X165100Y520700D01*
X166116Y621792D02*
X165100Y622300D01*
X114300Y571500D02*
X105156Y580644D01*
X105156Y662940D01*
X114300Y672084D01*
X114300Y673100D01*
X105156Y662940D02*
X102108Y665988D01*
X102108Y736092D01*
X101600Y736600D01*
X737616Y559308D02*
X746760Y568452D01*
X746760Y682752D01*
X742188Y687324D01*
X737616Y559308D02*
X736600Y558800D01*
D18*
X742188Y687324D03*
D17*
X265176Y623316D02*
X216408Y672084D01*
X265176Y623316D02*
X291084Y623316D01*
X216408Y672084D02*
X215900Y673100D01*
X291084Y623316D02*
X292100Y622300D01*
X123444Y530352D02*
X114300Y521208D01*
X123444Y571500D02*
X123444Y612648D01*
X123444Y571500D02*
X123444Y530352D01*
X123444Y612648D02*
X114300Y621792D01*
X114300Y521208D02*
X114300Y520700D01*
X114300Y621792D02*
X114300Y622300D01*
X123444Y571500D02*
X155448Y571500D01*
X165100Y571500D01*
X155448Y662940D02*
X164592Y672084D01*
X155448Y662940D02*
X155448Y571500D01*
X164592Y672084D02*
X165100Y673100D01*
X342900Y571500D02*
X384048Y530352D01*
X393700Y520700D01*
X342900Y571500D02*
X342900Y622300D01*
X384048Y662940D02*
X393192Y672084D01*
X384048Y662940D02*
X384048Y530352D01*
X393192Y672084D02*
X393700Y673100D01*
X546100Y457200D02*
X568452Y457200D01*
X579120Y467868D01*
X598932Y467868D01*
X609600Y457200D01*
X737616Y316992D02*
X737616Y292608D01*
X736600Y292100D01*
X737616Y316992D02*
X736600Y317500D01*
X659892Y342900D02*
X659892Y352044D01*
X647700Y364236D01*
X647700Y446532D02*
X647700Y457200D01*
X647700Y446532D02*
X647700Y364236D01*
X659892Y342900D02*
X660400Y342900D01*
X726948Y457200D02*
X736600Y457200D01*
X726948Y457200D02*
X716280Y446532D01*
X647700Y446532D01*
X736092Y330708D02*
X736092Y318516D01*
X736092Y330708D02*
X720852Y345948D01*
X720852Y441960D01*
X716280Y446532D01*
X736092Y318516D02*
X736600Y317500D01*
X647700Y457200D02*
X609600Y457200D01*
X25908Y291084D02*
X25908Y266700D01*
X25400Y266700D01*
X25908Y291084D02*
X25400Y292100D01*
X24384Y329184D02*
X24384Y342900D01*
X24384Y329184D02*
X15240Y320040D01*
X15240Y301752D01*
X24384Y292608D01*
X24384Y342900D02*
X25400Y342900D01*
X24384Y292608D02*
X25400Y292100D01*
X177800Y457200D02*
X203200Y457200D01*
X88900Y457200D02*
X50800Y457200D01*
X114300Y481584D02*
X114300Y520700D01*
X114300Y481584D02*
X89916Y457200D01*
X88900Y457200D01*
X509016Y457200D02*
X546100Y457200D01*
X509016Y457200D02*
X496824Y445008D01*
X431292Y445008D01*
X419100Y457200D01*
X342900Y521208D02*
X301752Y562356D01*
X301752Y662940D01*
X292608Y672084D01*
X342900Y521208D02*
X342900Y520700D01*
X292608Y672084D02*
X292100Y673100D01*
X559308Y672084D02*
X559308Y571500D01*
X559308Y672084D02*
X558800Y673100D01*
D18*
X559308Y571500D03*
D17*
X637032Y583692D02*
X711708Y583692D01*
X736092Y583692D01*
X637032Y583692D02*
X624840Y571500D01*
X559308Y571500D01*
X736092Y583692D02*
X736600Y584200D01*
X260096Y88900D02*
X301752Y47244D01*
X546100Y88900D02*
X609600Y152400D01*
X546100Y88900D02*
X260096Y88900D01*
X600456Y47244D02*
X609600Y38100D01*
X600456Y47244D02*
X301752Y47244D01*
X242316Y342900D02*
X242316Y374904D01*
X278892Y411480D01*
X278892Y457200D01*
X242316Y342900D02*
X241300Y342900D01*
X278892Y457200D02*
X279400Y457200D01*
X377952Y381000D02*
X381000Y381000D01*
X377952Y381000D02*
X347472Y411480D01*
X278892Y411480D01*
X35052Y457200D02*
X25400Y457200D01*
X35052Y457200D02*
X45720Y446532D01*
X92964Y446532D01*
X103632Y457200D01*
X103632Y461772D01*
X152400Y510540D01*
X249936Y510540D01*
X301752Y562356D01*
X711708Y583692D02*
X711708Y457200D01*
X711200Y457200D01*
X621792Y577596D02*
X621792Y736092D01*
X622300Y736600D01*
D18*
X621792Y577596D03*
D17*
X36576Y598932D02*
X25908Y609600D01*
X36576Y598932D02*
X36576Y510540D01*
X25908Y609600D02*
X25400Y609600D01*
D18*
X36576Y510540D03*
D17*
X393700Y215900D02*
X660400Y215900D01*
X393700Y215900D02*
X381000Y190500D01*
X571500Y342900D02*
X670560Y243840D01*
X670560Y225552D01*
X661416Y216408D01*
X660400Y215900D01*
X24384Y214884D02*
X24384Y202692D01*
X15240Y193548D01*
X15240Y187452D01*
X27432Y175260D01*
X41148Y175260D01*
X88392Y128016D01*
X24384Y214884D02*
X25400Y215900D01*
X88392Y128016D02*
X152400Y203200D01*
X24384Y216408D02*
X24384Y228600D01*
X12192Y240792D01*
X12192Y342900D01*
X47244Y377952D01*
X54864Y377952D01*
X67056Y390144D01*
X67056Y409956D01*
X114300Y457200D01*
X24384Y216408D02*
X25400Y215900D01*
X381000Y317500D02*
X381000Y329184D01*
X420624Y368808D01*
X420624Y400812D01*
X406908Y414528D01*
X406908Y463296D01*
X413004Y469392D01*
X457200Y469392D01*
X469392Y457200D01*
X469900Y457200D01*
X215900Y419100D02*
X210312Y419100D01*
X182880Y446532D01*
X163068Y446532D01*
X152400Y457200D01*
X89916Y94996D02*
X89916Y25908D01*
X89916Y94996D02*
X129540Y134620D01*
X129540Y275844D01*
X137160Y283464D01*
X147828Y283464D01*
X151892Y279400D01*
X254000Y203200D02*
X89916Y25908D01*
X152400Y228600D02*
X151892Y279400D01*
X184404Y356616D02*
X184404Y388620D01*
X184404Y356616D02*
X147828Y320040D01*
X147828Y283464D01*
D18*
X184404Y388620D03*
D17*
X102108Y228600D02*
X102108Y216408D01*
X102108Y228600D02*
X123444Y249936D01*
X123444Y321564D01*
X152400Y350520D01*
X152400Y393700D01*
X102108Y216408D02*
X101600Y215900D01*
X187452Y149352D02*
X192024Y144780D01*
X201971Y134833D01*
X187452Y149352D02*
X155448Y149352D01*
X254000Y304800D01*
X201971Y134833D02*
X152400Y63500D01*
X214884Y167640D02*
X214884Y342900D01*
X214884Y167640D02*
X192024Y144780D01*
X214884Y342900D02*
X215900Y342900D01*
X102108Y394716D02*
X102108Y422148D01*
X147828Y467868D01*
X341376Y467868D01*
X417576Y391668D01*
X417576Y370332D01*
X382524Y335280D01*
X373380Y335280D01*
X355600Y317500D01*
X102108Y394716D02*
X101600Y393700D01*
X216408Y108204D02*
X216408Y51308D01*
X216408Y108204D02*
X225552Y117348D01*
X225552Y233172D01*
X309372Y316992D01*
X355092Y316992D01*
X254000Y63500D02*
X216408Y51308D01*
X355092Y316992D02*
X355600Y317500D01*
X101600Y266700D02*
X76200Y266700D01*
X25400Y317500D01*
X236220Y419100D02*
X241300Y419100D01*
X236220Y419100D02*
X219456Y402336D01*
X163068Y402336D01*
X155448Y409956D01*
X149352Y409956D01*
X137160Y397764D01*
X137160Y339852D01*
X102108Y304800D01*
D18*
X102108Y304800D03*
D17*
X102108Y202692D02*
X102108Y190500D01*
X102108Y202692D02*
X126492Y227076D01*
X126492Y315468D01*
X178308Y367284D01*
X178308Y391668D01*
X181356Y394716D01*
X187452Y394716D01*
X231648Y350520D01*
X231648Y332232D01*
X237744Y326136D01*
X341376Y326136D01*
X377952Y362712D01*
X387096Y362712D01*
X405384Y381000D01*
X102108Y190500D02*
X101600Y190500D01*
X405384Y381000D02*
X406400Y381000D01*
X50292Y190500D02*
X25400Y190500D01*
X50292Y190500D02*
X100584Y240792D01*
X101600Y241300D01*
X89916Y242316D02*
X25908Y242316D01*
X89916Y242316D02*
X111252Y263652D01*
X111252Y269748D01*
X91440Y289560D01*
X91440Y416052D01*
X147828Y472440D01*
X467868Y472440D01*
X480060Y460248D01*
X480060Y454152D01*
X473964Y448056D01*
X441960Y448056D01*
X423672Y466344D01*
X414528Y466344D01*
X409956Y461772D01*
X409956Y416052D01*
X423672Y402336D01*
X423672Y335280D01*
X406908Y318516D01*
X25908Y242316D02*
X25400Y241300D01*
X406400Y317500D02*
X406908Y318516D01*
X254000Y165100D02*
X149225Y98425D01*
X152400Y101600D01*
X214104Y117587D02*
X254000Y139700D01*
X214104Y117587D02*
X152400Y25400D01*
X140208Y216408D02*
X140208Y266700D01*
X140208Y216408D02*
X166116Y190500D01*
X140208Y266700D02*
X152400Y304800D01*
X254000Y266700D02*
X166116Y190500D01*
X635508Y342900D02*
X635508Y393192D01*
X635508Y342900D02*
X659892Y318516D01*
X635508Y393192D02*
X635000Y393700D01*
X659892Y318516D02*
X660400Y317500D01*
X533400Y114300D02*
X533400Y38100D01*
X661416Y355092D02*
X661416Y393192D01*
X661416Y355092D02*
X726948Y289560D01*
X726948Y275844D01*
X736092Y266700D01*
X661416Y393192D02*
X660400Y393700D01*
X736092Y266700D02*
X736600Y266700D01*
X609600Y228600D02*
X457200Y152400D01*
X355600Y254000D01*
X371856Y237744D02*
X533400Y76200D01*
X533400Y152400D01*
X547116Y342900D02*
X547116Y374904D01*
X583692Y411480D01*
X583692Y435864D02*
X583692Y457200D01*
X583692Y435864D02*
X583692Y411480D01*
X547116Y342900D02*
X546100Y342900D01*
X583692Y457200D02*
X584200Y457200D01*
X486156Y352044D02*
X371856Y237744D01*
X486156Y352044D02*
X486156Y364236D01*
X536448Y414528D01*
X536448Y429768D01*
X542544Y435864D01*
X583692Y435864D01*
X525780Y342900D02*
X520700Y342900D01*
X525780Y342900D02*
X626364Y242316D01*
X659892Y242316D01*
X660400Y241300D01*
X568960Y259080D02*
X533400Y254000D01*
X568960Y259080D02*
X609600Y279400D01*
X609600Y304800D02*
X609600Y190500D01*
X545592Y387096D02*
X545592Y419100D01*
X545592Y387096D02*
X504444Y345948D01*
X504444Y304800D02*
X609600Y304800D01*
X504444Y304800D02*
X504444Y345948D01*
X545592Y419100D02*
X546100Y419100D01*
X533400Y228600D02*
X533400Y190500D01*
X737616Y178308D02*
X737616Y176784D01*
X737616Y166116D01*
X737616Y178308D02*
X746760Y187452D01*
X746760Y231648D01*
X737616Y240792D01*
X737616Y166116D02*
X736600Y165100D01*
X737616Y240792D02*
X736600Y241300D01*
X723900Y190500D02*
X660400Y190500D01*
X723900Y190500D02*
X737616Y176784D01*
M02*
