G04 EAGLE Gerber RS-274X export*
G75*
%MOMM*%
%FSLAX34Y34*%
%LPD*%
%IN*%
%IPPOS*%
%AMOC8*
5,1,8,0,0,1.08239X$1,22.5*%
G01*
%ADD10C,0.254000*%


D10*
X0Y0D02*
X762000Y0D01*
X762000Y762000D01*
X0Y762000D01*
X0Y0D01*
X52100Y37600D02*
X52029Y36603D01*
X51886Y35613D01*
X51674Y34636D01*
X51392Y33676D01*
X51043Y32739D01*
X50627Y31829D01*
X50148Y30952D01*
X49607Y30110D01*
X49008Y29310D01*
X48353Y28554D01*
X47646Y27847D01*
X46890Y27192D01*
X46090Y26593D01*
X45248Y26052D01*
X44371Y25573D01*
X43461Y25157D01*
X42524Y24808D01*
X41565Y24526D01*
X40587Y24314D01*
X39598Y24171D01*
X38600Y24100D01*
X37600Y24100D01*
X36603Y24171D01*
X35613Y24314D01*
X34636Y24526D01*
X33676Y24808D01*
X32739Y25157D01*
X31829Y25573D01*
X30952Y26052D01*
X30110Y26593D01*
X29310Y27192D01*
X28554Y27847D01*
X27847Y28554D01*
X27192Y29310D01*
X26593Y30110D01*
X26052Y30952D01*
X25573Y31829D01*
X25157Y32739D01*
X24808Y33676D01*
X24526Y34636D01*
X24314Y35613D01*
X24171Y36603D01*
X24100Y37600D01*
X24100Y38600D01*
X24171Y39598D01*
X24314Y40587D01*
X24526Y41565D01*
X24808Y42524D01*
X25157Y43461D01*
X25573Y44371D01*
X26052Y45248D01*
X26593Y46090D01*
X27192Y46890D01*
X27847Y47646D01*
X28554Y48353D01*
X29310Y49008D01*
X30110Y49607D01*
X30952Y50148D01*
X31829Y50627D01*
X32739Y51043D01*
X33676Y51392D01*
X34636Y51674D01*
X35613Y51886D01*
X36603Y52029D01*
X37600Y52100D01*
X38600Y52100D01*
X39598Y52029D01*
X40587Y51886D01*
X41565Y51674D01*
X42524Y51392D01*
X43461Y51043D01*
X44371Y50627D01*
X45248Y50148D01*
X46090Y49607D01*
X46890Y49008D01*
X47646Y48353D01*
X48353Y47646D01*
X49008Y46890D01*
X49607Y46090D01*
X50148Y45248D01*
X50627Y44371D01*
X51043Y43461D01*
X51392Y42524D01*
X51674Y41565D01*
X51886Y40587D01*
X52029Y39598D01*
X52100Y38600D01*
X52100Y37600D01*
X52100Y723400D02*
X52029Y722403D01*
X51886Y721413D01*
X51674Y720436D01*
X51392Y719476D01*
X51043Y718539D01*
X50627Y717629D01*
X50148Y716752D01*
X49607Y715910D01*
X49008Y715110D01*
X48353Y714354D01*
X47646Y713647D01*
X46890Y712992D01*
X46090Y712393D01*
X45248Y711852D01*
X44371Y711373D01*
X43461Y710957D01*
X42524Y710608D01*
X41565Y710326D01*
X40587Y710114D01*
X39598Y709971D01*
X38600Y709900D01*
X37600Y709900D01*
X36603Y709971D01*
X35613Y710114D01*
X34636Y710326D01*
X33676Y710608D01*
X32739Y710957D01*
X31829Y711373D01*
X30952Y711852D01*
X30110Y712393D01*
X29310Y712992D01*
X28554Y713647D01*
X27847Y714354D01*
X27192Y715110D01*
X26593Y715910D01*
X26052Y716752D01*
X25573Y717629D01*
X25157Y718539D01*
X24808Y719476D01*
X24526Y720436D01*
X24314Y721413D01*
X24171Y722403D01*
X24100Y723400D01*
X24100Y724400D01*
X24171Y725398D01*
X24314Y726387D01*
X24526Y727365D01*
X24808Y728324D01*
X25157Y729261D01*
X25573Y730171D01*
X26052Y731048D01*
X26593Y731890D01*
X27192Y732690D01*
X27847Y733446D01*
X28554Y734153D01*
X29310Y734808D01*
X30110Y735407D01*
X30952Y735948D01*
X31829Y736427D01*
X32739Y736843D01*
X33676Y737192D01*
X34636Y737474D01*
X35613Y737686D01*
X36603Y737829D01*
X37600Y737900D01*
X38600Y737900D01*
X39598Y737829D01*
X40587Y737686D01*
X41565Y737474D01*
X42524Y737192D01*
X43461Y736843D01*
X44371Y736427D01*
X45248Y735948D01*
X46090Y735407D01*
X46890Y734808D01*
X47646Y734153D01*
X48353Y733446D01*
X49008Y732690D01*
X49607Y731890D01*
X50148Y731048D01*
X50627Y730171D01*
X51043Y729261D01*
X51392Y728324D01*
X51674Y727365D01*
X51886Y726387D01*
X52029Y725398D01*
X52100Y724400D01*
X52100Y723400D01*
X737900Y723400D02*
X737829Y722403D01*
X737686Y721413D01*
X737474Y720436D01*
X737192Y719476D01*
X736843Y718539D01*
X736427Y717629D01*
X735948Y716752D01*
X735407Y715910D01*
X734808Y715110D01*
X734153Y714354D01*
X733446Y713647D01*
X732690Y712992D01*
X731890Y712393D01*
X731048Y711852D01*
X730171Y711373D01*
X729261Y710957D01*
X728324Y710608D01*
X727365Y710326D01*
X726387Y710114D01*
X725398Y709971D01*
X724400Y709900D01*
X723400Y709900D01*
X722403Y709971D01*
X721413Y710114D01*
X720436Y710326D01*
X719476Y710608D01*
X718539Y710957D01*
X717629Y711373D01*
X716752Y711852D01*
X715910Y712393D01*
X715110Y712992D01*
X714354Y713647D01*
X713647Y714354D01*
X712992Y715110D01*
X712393Y715910D01*
X711852Y716752D01*
X711373Y717629D01*
X710957Y718539D01*
X710608Y719476D01*
X710326Y720436D01*
X710114Y721413D01*
X709971Y722403D01*
X709900Y723400D01*
X709900Y724400D01*
X709971Y725398D01*
X710114Y726387D01*
X710326Y727365D01*
X710608Y728324D01*
X710957Y729261D01*
X711373Y730171D01*
X711852Y731048D01*
X712393Y731890D01*
X712992Y732690D01*
X713647Y733446D01*
X714354Y734153D01*
X715110Y734808D01*
X715910Y735407D01*
X716752Y735948D01*
X717629Y736427D01*
X718539Y736843D01*
X719476Y737192D01*
X720436Y737474D01*
X721413Y737686D01*
X722403Y737829D01*
X723400Y737900D01*
X724400Y737900D01*
X725398Y737829D01*
X726387Y737686D01*
X727365Y737474D01*
X728324Y737192D01*
X729261Y736843D01*
X730171Y736427D01*
X731048Y735948D01*
X731890Y735407D01*
X732690Y734808D01*
X733446Y734153D01*
X734153Y733446D01*
X734808Y732690D01*
X735407Y731890D01*
X735948Y731048D01*
X736427Y730171D01*
X736843Y729261D01*
X737192Y728324D01*
X737474Y727365D01*
X737686Y726387D01*
X737829Y725398D01*
X737900Y724400D01*
X737900Y723400D01*
X737900Y37600D02*
X737829Y36603D01*
X737686Y35613D01*
X737474Y34636D01*
X737192Y33676D01*
X736843Y32739D01*
X736427Y31829D01*
X735948Y30952D01*
X735407Y30110D01*
X734808Y29310D01*
X734153Y28554D01*
X733446Y27847D01*
X732690Y27192D01*
X731890Y26593D01*
X731048Y26052D01*
X730171Y25573D01*
X729261Y25157D01*
X728324Y24808D01*
X727365Y24526D01*
X726387Y24314D01*
X725398Y24171D01*
X724400Y24100D01*
X723400Y24100D01*
X722403Y24171D01*
X721413Y24314D01*
X720436Y24526D01*
X719476Y24808D01*
X718539Y25157D01*
X717629Y25573D01*
X716752Y26052D01*
X715910Y26593D01*
X715110Y27192D01*
X714354Y27847D01*
X713647Y28554D01*
X712992Y29310D01*
X712393Y30110D01*
X711852Y30952D01*
X711373Y31829D01*
X710957Y32739D01*
X710608Y33676D01*
X710326Y34636D01*
X710114Y35613D01*
X709971Y36603D01*
X709900Y37600D01*
X709900Y38600D01*
X709971Y39598D01*
X710114Y40587D01*
X710326Y41565D01*
X710608Y42524D01*
X710957Y43461D01*
X711373Y44371D01*
X711852Y45248D01*
X712393Y46090D01*
X712992Y46890D01*
X713647Y47646D01*
X714354Y48353D01*
X715110Y49008D01*
X715910Y49607D01*
X716752Y50148D01*
X717629Y50627D01*
X718539Y51043D01*
X719476Y51392D01*
X720436Y51674D01*
X721413Y51886D01*
X722403Y52029D01*
X723400Y52100D01*
X724400Y52100D01*
X725398Y52029D01*
X726387Y51886D01*
X727365Y51674D01*
X728324Y51392D01*
X729261Y51043D01*
X730171Y50627D01*
X731048Y50148D01*
X731890Y49607D01*
X732690Y49008D01*
X733446Y48353D01*
X734153Y47646D01*
X734808Y46890D01*
X735407Y46090D01*
X735948Y45248D01*
X736427Y44371D01*
X736843Y43461D01*
X737192Y42524D01*
X737474Y41565D01*
X737686Y40587D01*
X737829Y39598D01*
X737900Y38600D01*
X737900Y37600D01*
M02*
