M48
;GenerationSoftware,Autodesk,EAGLE,9.6.2*%
;CreationDate,2023-10-08T19:46:57Z*%
FMAT,2
ICI,OFF
METRIC,TZ,000.000
T6C0.350
T5C0.813
T4C1.000
T3C1.016
T2C1.118
T1C2.800
%
G90
M71
T1
X3810Y3810
X3810Y72390
X72390Y72390
X72390Y3810
T2
X52070Y73660
X62230Y73660
X38100Y73660
X48260Y73660
X20320Y73660
X10160Y73660
X34290Y73660
X24130Y73660
T3
X40640Y31750
X38100Y31750
X35560Y31750
X40640Y38100
X38100Y38100
X35560Y38100
X40640Y19050
X38100Y19050
X35560Y19050
X40640Y25400
X38100Y25400
X35560Y25400
T4
X2540Y60960
X2540Y58420
X2540Y55880
X73660Y55880
X73660Y58420
X73660Y60960
T5
X39370Y52070
X34290Y52070
X39370Y57150
X34290Y57150
X55880Y67310
X58420Y67310
X21590Y67310
X29210Y67310
X21590Y62230
X29210Y62230
X21590Y57150
X29210Y57150
X21590Y52070
X29210Y52070
X43180Y67310
X50800Y67310
X39370Y62230
X34290Y62230
X39370Y67310
X34290Y67310
X16510Y52070
X11430Y52070
X2540Y45720
X5080Y45720
X8890Y45720
X11430Y45720
X15240Y45720
X17780Y45720
X20320Y45720
X25400Y45720
X27940Y45720
X33020Y45720
X2540Y34290
X10160Y34290
X2540Y31750
X10160Y31750
X2540Y29210
X10160Y29210
X2540Y26670
X10160Y26670
X2540Y24130
X10160Y24130
X2540Y21590
X10160Y21590
X2540Y19050
X10160Y19050
X2540Y16510
X10160Y16510
X2540Y39370
X7620Y39370
X5080Y39370
X10160Y39370
X15240Y39370
X12700Y39370
X26670Y41910
X24130Y41910
X24130Y34290
X26670Y34290
X21590Y41910
X19050Y41910
X21590Y34290
X19050Y34290
X25400Y22860
X15240Y22860
X25400Y20320
X15240Y20320
X25400Y16510
X15240Y16510
X25400Y10160
X15240Y10160
X25400Y13970
X15240Y13970
X25400Y2540
X15240Y2540
X25400Y26670
X15240Y26670
X25400Y30480
X15240Y30480
X25400Y6350
X15240Y6350
X60960Y15240
X53340Y15240
X53340Y7620
X60960Y7620
X53340Y3810
X60960Y3810
X60960Y11430
X53340Y11430
X53340Y25400
X60960Y25400
X53340Y27940
X60960Y27940
X53340Y22860
X60960Y22860
X60960Y19050
X53340Y19050
X53340Y30480
X60960Y30480
X71120Y45720
X73660Y45720
X58420Y45720
X60960Y45720
X64770Y45720
X67310Y45720
X49530Y45720
X54610Y45720
X41910Y45720
X46990Y45720
X66040Y34290
X73660Y34290
X66040Y31750
X73660Y31750
X66040Y29210
X73660Y29210
X66040Y26670
X73660Y26670
X66040Y24130
X73660Y24130
X66040Y21590
X73660Y21590
X66040Y19050
X73660Y19050
X66040Y16510
X73660Y16510
X16510Y57150
X11430Y57150
X16510Y62230
X11430Y62230
X16510Y67310
X11430Y67310
X60960Y39370
X66040Y39370
X63500Y39370
X68580Y39370
X73660Y39370
X71120Y39370
X49530Y34290
X52070Y34290
X52070Y41910
X49530Y41910
X54610Y34290
X57150Y34290
X54610Y41910
X57150Y41910
T6
X10211Y30480
X18440Y38862
X3658Y51054
X62179Y57760
X55931Y57150
X74219Y68732
M30